<?xml version="1.0" standalone="no"?>
<!DOCTYPE svg PUBLIC "-//W3C//DTD SVG 20010904//EN"
 "http://www.w3.org/TR/2001/REC-SVG-20010904/DTD/svg10.dtd">
<svg version="1.0" xmlns="http://www.w3.org/2000/svg"
 width="2400.000000pt" height="2400.000000pt" viewBox="0 0 2400.000000 2400.000000"
 preserveAspectRatio="xMidYMid meet">

<g transform="translate(0.000000,2400.000000) scale(0.100000,-0.100000)"
fill="#000000" stroke="none">
<path d="M1530 7773 c11 -38 195 -736 410 -1553 215 -817 398 -1509 406 -1537
l15 -53 354 0 c328 0 354 1 359 18 2 9 122 501 266 1092 144 591 264 1077 266
1079 2 2 6 2 8 0 2 -2 121 -479 265 -1059 144 -580 266 -1072 272 -1092 l10
-38 347 0 348 0 424 1583 c233 870 426 1592 428 1605 l4 22 -340 0 -340 0 -25
-102 c-13 -57 -132 -556 -263 -1110 -131 -555 -241 -1008 -245 -1008 -4 0 -96
359 -204 798 -108 438 -232 937 -274 1107 l-77 310 -327 3 -327 2 -5 -22 c-4
-13 -129 -504 -278 -1091 -150 -588 -276 -1068 -282 -1068 -6 0 -505 2110
-515 2179 0 1 -157 2 -349 2 l-349 0 18 -67z"/>
<path d="M5870 6235 l0 -1605 315 0 314 0 4 723 c3 656 5 728 21 792 67 258
204 366 467 366 265 0 379 -122 409 -438 6 -61 10 -398 10 -775 l0 -668 316 0
315 0 -4 813 c-4 891 -6 924 -66 1103 -68 200 -202 340 -397 410 -141 51 -389
69 -534 39 -200 -42 -386 -161 -486 -312 -19 -29 -39 -53 -45 -53 -5 0 -9 231
-9 605 l0 605 -315 0 -315 0 0 -1605z"/>
<path d="M15581 7818 c-18 -49 -1184 -3144 -1192 -3166 l-9 -22 352 2 352 3
88 250 c48 138 104 296 124 353 l36 102 603 0 602 0 120 -352 120 -353 362 -3
c289 -2 362 0 359 10 -3 7 -272 730 -598 1606 l-593 1592 -359 0 -358 0 -9
-22z m399 -860 c97 -280 370 -1082 370 -1089 0 -11 -830 -12 -830 -1 -1 16
414 1182 421 1182 3 0 21 -42 39 -92z"/>
<path d="M11050 7300 l0 -350 -190 0 -190 0 0 -210 0 -210 190 0 189 0 3 -757
c3 -743 4 -759 24 -820 30 -88 66 -144 124 -196 62 -56 129 -89 235 -119 74
-20 103 -22 370 -22 160 -1 302 2 318 7 l27 7 0 239 0 239 -138 -5 c-159 -7
-230 7 -273 54 -54 58 -53 49 -57 736 l-3 637 236 0 235 0 0 210 0 210 -235 0
-235 0 0 350 0 350 -315 0 -315 0 0 -350z"/>
<path d="M9285 7003 c-318 -39 -515 -116 -664 -257 -122 -117 -186 -233 -217
-394 -24 -126 -60 -112 299 -112 l313 0 17 72 c30 127 94 201 214 249 51 21
75 23 208 23 113 1 163 -3 205 -16 124 -38 190 -125 198 -260 12 -203 -91
-266 -508 -313 -296 -34 -523 -81 -652 -135 -173 -72 -302 -212 -354 -385 -26
-86 -27 -345 -1 -430 99 -324 387 -489 822 -471 282 11 491 82 662 225 l60 50
11 -72 c6 -40 16 -89 22 -109 l11 -38 319 0 319 0 -18 43 c-50 119 -61 305
-61 1107 0 732 -2 749 -61 859 -37 71 -122 160 -203 212 -163 107 -415 160
-746 157 -91 0 -178 -3 -195 -5z m572 -1440 c-6 -252 -27 -330 -118 -428 -96
-104 -206 -145 -389 -145 -183 0 -289 37 -349 120 -62 86 -69 231 -15 329 64
119 175 169 469 212 184 26 301 54 350 83 22 13 44 25 49 25 4 1 6 -88 3 -196z"/>
<path d="M13060 6999 c-180 -23 -344 -73 -456 -140 -135 -79 -251 -231 -289
-377 -22 -86 -30 -243 -16 -317 16 -88 71 -192 134 -254 130 -128 268 -185
662 -277 444 -103 589 -164 636 -269 52 -114 -9 -253 -140 -320 -107 -54 -295
-71 -430 -40 -179 43 -321 191 -321 335 l0 40 -301 0 -302 0 6 -68 c22 -266
168 -477 418 -607 257 -133 685 -172 1056 -95 304 63 530 240 618 483 67 184
55 431 -27 566 -34 56 -117 139 -182 183 -121 83 -259 129 -651 218 -259 59
-339 82 -407 116 -107 54 -157 130 -144 221 18 137 151 202 389 190 176 -8
293 -57 355 -147 21 -31 33 -66 47 -132 l5 -28 299 0 298 0 -4 28 c-26 169
-71 281 -152 382 -178 221 -456 321 -881 319 -85 -1 -184 -5 -220 -10z"/>
<path d="M18710 6991 c-206 -46 -378 -160 -467 -312 -10 -16 -21 -29 -25 -29
-4 0 -8 68 -8 150 l0 150 -300 0 -300 0 0 -1570 0 -1570 315 0 315 0 0 550 c0
303 2 550 4 550 3 0 49 -44 103 -98 111 -112 194 -161 348 -208 82 -25 105
-28 255 -28 198 -1 300 20 434 89 262 134 447 375 526 689 44 174 53 267 47
476 -8 262 -50 446 -145 635 -131 262 -358 449 -625 516 -121 31 -362 36 -477
10z m237 -482 c158 -54 282 -195 341 -389 66 -217 52 -581 -29 -765 -59 -134
-173 -244 -297 -287 -87 -30 -265 -32 -354 -4 -232 71 -370 308 -385 657 -13
306 51 531 189 670 68 67 173 124 258 138 76 13 209 4 277 -20z"/>
<path d="M21247 6990 c-131 -28 -260 -94 -352 -181 -41 -39 -87 -91 -102 -115
-15 -24 -31 -44 -35 -44 -5 0 -8 68 -8 150 l0 150 -300 0 -300 0 0 -1570 0
-1570 315 0 315 0 0 550 c0 303 2 550 5 550 2 0 48 -44 102 -98 111 -111 195
-161 348 -208 82 -25 105 -28 255 -28 140 0 179 3 257 23 100 24 238 90 318
150 310 234 464 641 433 1141 -33 532 -276 912 -681 1065 -148 55 -400 71
-570 35z m240 -481 c169 -58 296 -214 354 -434 30 -114 38 -372 15 -514 -29
-181 -99 -321 -204 -407 -104 -85 -179 -109 -337 -109 -89 0 -123 5 -178 23
-160 55 -282 198 -336 391 -65 233 -48 577 37 762 75 165 214 280 372 308 75
13 208 4 277 -20z"/>
</g>
</svg>
